<svg preserveAspectRatio="xMidYMid meet" data-bbox="20.001 20.002 160.003 159.999" xmlns="http://www.w3.org/2000/svg" width="200" height="200" viewBox="20.001 20.002 160.003 159.999" data-type="color" role="presentation" aria-hidden="true"><defs><style>#comp-ky8o3jtl svg [data-color="1"] {fill: #EFEFF4;}</style></defs>
    <g>
        <path fill="#ffcae7" d="M88.007 132.812c61.216 76.753-65.746 47.275-15.1-8.028-18.586-3.425-90.548-54.574-21.852-30.293-2.165-6.254 5.781-11.769-7.786-23.615-61.604-67.036 101.682-62.62 75.81 3.394 31.087-14.863 22.558-22.735 50.215 17.04 4.976 4.164-11.943 15.899-.617 22.435 48.853 69.504-77.453 28.839-80.67 19.067z" data-color="1"></path>
        <path fill="#efef97" d="M88.48 97.141c4.105 3.347 16.532 9.652 12.829 20.45-2.712-3.802-4.892 17.057-15.498-5.194-4.746-5.51-23.875-14.325 2.669-15.256z" data-color="2"></path>
        <path fill="#5e5e5e" d="M93.477 180.001c-7.123 0-13.969-1.926-20.86-5.86-2.991-1.709-5.276-3.507-7.191-5.66-1.257-1.412-1.908-3.042-1.99-4.98-.09-2.1-.183-4.2-.276-6.3-.116-2.616-.232-5.234-.342-7.851-.004-.107-.013-.216-.021-.328-.038-.515-.081-1.099.188-1.595 1.069-1.982.538-3.921-.025-5.972l-.194-.714c-.119-.451-.242-.902-.365-1.352-.444-1.622-.903-3.298-1.149-4.987-.627-4.294 1.2-6.996 5.75-8.503 1.274-.422 2.556-.752 3.913-1.102.351-.091.704-.182 1.06-.276-1.038-1.061-2.185-1.971-3.867-2.305-1.913-.38-3.794-.973-5.613-1.547l-.738-.231c-2.171-.677-4.228-1.456-5.544-3.502-.312-.486-1.791-.728-2.674-.872l-.127-.021c-.962-.157-1.962-.258-2.929-.355-1.407-.142-2.862-.288-4.26-.613-1.425-.333-2.951-1.127-4.189-2.181-3.292-2.803-6.057-5.357-8.453-7.81-1.825-1.869-3.387-3.983-4.897-6.028l-.15-.203a372.924 372.924 0 01-4.119-5.729c-1.203-1.696-2.406-3.392-3.636-5.072-.938-1.282-.859-2.197-.626-2.74.227-.531.819-1.206 2.352-1.406 1.267-.169 2.629.2 3.912.62.692.227 1.426.841 1.964 1.643 2.165 3.226 5.656 4.458 8.785 5.237l.659.159c1.003.239 2.041.485 2.968.938 1.121.546 2.495.458 3.948.364 1.775-.115 3.759-.244 5.738.724-.114-1.344-.299-3.733-.257-4.674.082-1.826.283-2.994.516-4.346.112-.645.231-1.342.352-2.187.199-1.389-.586-2.367-1.416-3.403a19.703 19.703 0 01-.566-.728c-1.46-2.001-3.232-3.881-4.945-5.699-.42-.446-.84-.891-1.256-1.339-1.193-1.283-2.409-2.549-3.625-3.815-1.799-1.872-3.659-3.807-5.411-5.774-2.998-3.366-3.782-7.511-4.54-11.519l-.032-.169c-1.217-6.427.415-12.362 4.85-17.638 4.449-5.293 9.435-8.345 15.244-9.33a13.957 13.957 0 014.866.06c2.165.42 4.084.166 6.037-.801 2.385-1.18 4.828-2.39 7.73-2.209 1.25.077 2.455.186 3.459.67 1.579.76 3.234.845 4.986.935l.733.039c1.486.087 3.383.288 4.873 1.076 1.51.797 2.954 1.73 4.351 2.632 1.313.847 2.67 1.724 4.065 2.475 1.165.627 2.602.946 3.992 1.254.296.066.59.131.882.199.338.078.851-.067 1.3-.195l.274-.077c2.587-.697 4.586-.552 6.107.447 1.62 1.064 2.622 3.054 3.067 6.086.165 1.125.009 2.271-.142 3.38l-.057.433c-.119.909.274 1.446 1.201 1.642l.22.047c1.525.324 3.087.661 4.602.596 3.094-.13 6.244.025 7.832 3.37.072.151.206.312.359.428 2.803 2.116 3.899 5.047 3.353 8.96a537.651 537.651 0 01-2.434 15.827c-.16.943-.537 1.839-.934 2.788-.024.057-.049.114-.072.172l2.827-1.492c3.258-1.718 6.456-3.405 9.651-5.099.836-.443 1.662-.898 2.49-1.353 1.611-.887 3.277-1.804 4.98-2.609 2.447-1.158 5.228-1.333 8.752-.552 2.323.515 3.702 1.979 3.885 4.121.055.65.096 1.301.137 1.952.049.778.096 1.556.172 2.332.152 1.58.568 1.985 2.339 2.28l.503.082c.728.118 1.456.237 2.175.39 3.568.754 5.446 3.369 4.786 6.662a5.332 5.332 0 01-.132.492c-.041.134-.082.268-.11.404-.423 2.144-.273 3.752 1.782 5.143 2.219 1.502 4.048 3.476 5.394 5.029.773.891.932 2.432.687 3.429-.417 1.71-1.071 3.385-1.705 5.005-.155.398-.312.797-.464 1.196a180.376 180.376 0 01-2.44 6.058c-.329.779-.706 1.54-1.103 2.346l-.387.787c.043.028.084.058.128.087.375.258.8.551 1.237.791 4.223 2.324 5.953 6.27 7.48 9.752.64 1.46.905 3.046 1.164 4.582l.03.178c.223 1.332.991 2.267 2.416 2.945 3.122 1.483 3.375 1.912 3.015 5.102a4.085 4.085 0 00.097 1.498c.407 1.504.105 2.928-.922 4.355-.957 1.33-1.188 2.63-.728 4.092 1.1 3.487.561 4.889-2.742 7.146-4.484 3.059-9.792 4.816-16.23 5.371-10.037.866-18.925-2.572-25.545-5.663-3.25-1.518-6.404-3.308-9.454-5.041-.829-.471-1.657-.941-2.487-1.406a.497.497 0 01.485-.867c.833.467 1.662.938 2.492 1.409 3.034 1.723 6.169 3.504 9.385 5.005 6.506 3.039 15.223 6.416 25.038 5.574 6.263-.541 11.416-2.242 15.754-5.202 2.944-2.011 3.319-2.968 2.355-6.026-.555-1.761-.271-3.388.868-4.971.853-1.185 1.098-2.302.771-3.514a5.071 5.071 0 01-.126-1.869c.314-2.779.314-2.779-2.454-4.095-1.72-.816-2.691-2.02-2.969-3.676l-.03-.179c-.247-1.475-.504-3-1.094-4.347-1.463-3.337-3.121-7.119-7.049-9.279-.48-.265-.927-.573-1.322-.843a20.107 20.107 0 00-.472-.32l-.364-.238.188-.393c.198-.411.392-.804.579-1.182.391-.793.761-1.541 1.078-2.292a180.682 180.682 0 002.428-6.026c.153-.401.31-.803.467-1.204.621-1.59 1.263-3.233 1.665-4.879.21-.859-.002-1.999-.474-2.542-1.306-1.506-3.077-3.42-5.2-4.857-2.648-1.793-2.622-4.02-2.199-6.159.033-.169.082-.335.133-.5.041-.132.082-.264.109-.399.551-2.748-.989-4.853-4.018-5.494-.705-.149-1.417-.265-2.129-.381l-.506-.083c-2.227-.37-2.967-1.109-3.166-3.164-.076-.788-.125-1.577-.174-2.366-.04-.643-.08-1.287-.135-1.929-.147-1.722-1.193-2.81-3.11-3.235-3.297-.732-5.874-.578-8.111.48-1.675.792-3.328 1.702-4.925 2.581-.832.458-1.664.916-2.504 1.361a5430.067 5430.067 0 01-9.654 5.099l-5.166 2.726.448-1.217c.188-.511.389-.991.582-1.453.392-.934.73-1.74.871-2.571a532.3 532.3 0 002.43-15.798c.499-3.572-.444-6.124-2.968-8.029-.28-.212-.519-.5-.658-.793-1.331-2.802-3.906-2.926-6.893-2.803-1.628.064-3.265-.28-4.849-.617l-.22-.047c-1.426-.301-2.166-1.327-1.981-2.743l.059-.437c.141-1.04.286-2.116.142-3.103-.4-2.735-1.26-4.501-2.628-5.399-1.271-.834-3.006-.938-5.303-.318l-.261.073c-.567.162-1.211.345-1.798.207l-.872-.197c-1.456-.323-2.961-.657-4.248-1.35-1.429-.77-2.803-1.657-4.132-2.515-1.379-.89-2.804-1.81-4.276-2.588-1.336-.706-3.19-.887-4.468-.962l-.726-.039c-1.773-.091-3.606-.185-5.366-1.032-.842-.406-1.942-.503-3.09-.574-2.636-.166-4.96.986-7.204 2.096-2.181 1.08-4.301 1.362-6.69.897a12.944 12.944 0 00-4.51-.055c-5.566.944-10.358 3.884-14.649 8.989-4.233 5.036-5.793 10.693-4.635 16.814l.032.168c.767 4.054 1.491 7.882 4.306 11.043 1.739 1.953 3.593 3.882 5.385 5.747 1.22 1.27 2.44 2.54 3.636 3.827.414.445.833.889 1.251 1.333 1.735 1.841 3.528 3.744 5.025 5.794.169.231.353.461.539.693.883 1.102 1.884 2.35 1.625 4.165a71.334 71.334 0 01-.357 2.215c-.237 1.373-.424 2.457-.503 4.222-.056 1.245.334 5.444.338 5.486l.096 1.033-.865-.572c-1.978-1.307-4.013-1.176-5.979-1.05-1.591.103-3.091.2-4.447-.462-.829-.404-1.811-.638-2.763-.864l-.67-.162c-3.119-.777-7.004-2.121-9.37-5.649-.323-.482-.873-1.064-1.448-1.252-1.114-.365-2.401-.718-3.473-.579-.833.109-1.39.398-1.567.812-.184.431-.002 1.056.514 1.761a409.685 409.685 0 013.645 5.085 365.062 365.062 0 004.108 5.713l.15.203c1.49 2.018 3.031 4.104 4.808 5.923 2.375 2.431 5.118 4.965 8.387 7.748 1.12.954 2.495 1.672 3.769 1.969 1.335.312 2.758.454 4.134.593.983.099 1.998.201 2.991.364l.127.02c1.246.205 2.797.458 3.349 1.316 1.138 1.768 2.94 2.446 5.005 3.09l.74.233c1.794.565 3.649 1.149 5.509 1.52 2.287.454 3.657 1.777 4.972 3.208l.552.601-.788.214c-.634.173-1.259.334-1.875.493-1.34.346-2.606.673-3.849 1.084-4.065 1.346-5.631 3.633-5.079 7.416.238 1.629.689 3.276 1.124 4.869.124.453.248.906.368 1.36l.191.706c.59 2.151 1.2 4.375-.059 6.707-.131.242-.1.653-.071 1.051.009.122.017.243.022.36.109 2.616.226 5.232.342 7.848.093 2.1.186 4.201.276 6.301.073 1.725.626 3.11 1.74 4.362 1.841 2.069 4.047 3.803 6.941 5.456 7.42 4.236 14.778 6.093 22.493 5.672l.135-.008c1.717-.092 3.493-.187 4.274-1.512 1.369-2.322 2.906-5.038 3.798-7.865 1.159-3.673.064-7.422-.994-11.047l-.183-.629c-2.532-8.735-7.188-16.61-13.836-23.408-.287-.293-.55-.608-.812-.923l-.354-.419a.498.498 0 01.752-.651c.124.144.245.288.365.434.245.294.49.589.758.864 6.765 6.917 11.502 14.933 14.081 23.826l.182.628c1.1 3.767 2.237 7.663.987 11.625-.923 2.927-2.491 5.701-3.889 8.071-1.052 1.784-3.19 1.898-5.077 2l-.134.007a42.67 42.67 0 01-2.175.058z" data-color="3"></path>
        <path fill="#5e5e5e" d="M112.36 145.475c-4.87 0-9.5-1.184-12.513-2.17-3.348-1.098-4.783-2.625-6.767-4.741-1.124-1.198-2.399-2.555-4.325-4.196-5.376-4.581-5.376-4.581-16.08-9.141l-2.744-1.169 2.886.179c8 .583 16.968.502 17.507-.642.46-.975-1.077-3.241-2.433-5.239-1.171-1.727-2.383-3.514-2.696-4.934-.589-2.678-8.956-8.865-16.509-9.176-5.458-.226-7.07-1.283-9.998-3.202-1.192-.781-2.543-1.666-4.478-2.722-7.078-3.86-3.12-15.533-2.947-16.028.015-.066 2.688-10.748 2.688-14.957 0-4.445 3.776-9.784 6.81-14.073l.07-.099c1.914-2.707 4.489-4.478 6.76-6.041 1.433-.987 2.788-1.919 3.814-2.968.929-.95 2.064-2.437 3.266-4.012 2.379-3.117 5.075-6.649 8.008-8.7 1.9-1.328 2.869-1.664 3.455-1.202.791.625.19 2.148-.807 4.67l-.204.516c-1.589 4.043-3.351 8.271-5.468 11.8-.25.417-.933 1.379-1.797 2.596-2.016 2.839-5.062 7.129-5.629 8.731-3.028 8.566-3.368 10.586-3.027 18.018.175 3.828 1.723 7.098 3.22 10.261 1.312 2.773 2.552 5.392 2.552 7.968a.496.496 0 11-.994 0c0-2.352-1.193-4.873-2.456-7.543-1.467-3.1-3.13-6.613-3.314-10.641-.345-7.524.03-9.759 3.083-18.394.613-1.733 3.585-5.919 5.755-8.975.852-1.2 1.525-2.148 1.756-2.532 2.08-3.466 3.822-7.649 5.396-11.652l.204-.518c.529-1.339 1.254-3.172 1.084-3.559.015.045-.438.013-2.238 1.272-2.806 1.962-5.452 5.429-7.787 8.488-1.274 1.669-2.374 3.11-3.345 4.104-1.093 1.118-2.486 2.077-3.961 3.092-2.311 1.59-4.7 3.234-6.512 5.796l-.07.1c-2.953 4.175-6.628 9.37-6.628 13.499 0 4.332-2.619 14.798-2.731 15.241-.052.155-3.868 11.414 2.472 14.871 1.971 1.074 3.399 2.011 4.547 2.763 2.87 1.881 4.31 2.825 9.493 3.039 7.632.315 16.704 6.616 17.439 9.956.271 1.234 1.429 2.94 2.548 4.589 1.651 2.434 3.21 4.732 2.509 6.22-.889 1.888-10.1 1.689-15.587 1.392 8.148 3.489 8.768 3.945 13.763 8.202 1.968 1.677 3.319 3.117 4.405 4.274 1.954 2.082 3.245 3.458 6.352 4.475 4.925 1.614 14.284 3.774 21.63.132 7.057-3.498 12.857-5.51 18.808-6.525 2.59-.442 4.105-1.036 5.859-1.725 1.945-.764 4.15-1.629 8.373-2.589 1.631-.371 3.114-.658 4.423-.912 5.24-1.015 8.126-1.574 10.188-5.323 1.188-2.159 1.553-3.569 1.116-4.308-.461-.779-1.927-1.127-4.754-1.127-5.514 0-13.997 2.638-21.566 5.219-3.251 1.108-5.307 2.214-6.958 3.102-2.497 1.343-4.151 2.234-7.515 1.859-4.582-.506-6.08-1.521-9.065-3.542-.766-.518-1.635-1.107-2.689-1.778-5.711-3.634-8.393-3.474-10.348-3.354-.329.019-.635.038-.927.038-2.044 0-2.511-.587-2.543-1.08-.082-1.28 2.794-1.846 4.516-2.07 5.225-.677 7.881-.016 12.7 1.188 2.467.616 5.538 1.383 9.863 2.211 10.798 2.068 18.837-3.46 24.16-7.116.942-.648 1.833-1.26 2.643-1.765 2.707-1.693 3.389-2.157 3.717-2.382.356-.243.356-.243 1.731-1.024a.496.496 0 11.491.863c-1.34.762-1.34.762-1.662.982-.334.227-1.027.7-3.751 2.402-.791.495-1.672 1.101-2.606 1.742-5.458 3.75-13.707 9.422-24.909 7.273-4.353-.833-7.439-1.603-9.918-2.222-4.854-1.212-7.288-1.824-12.331-1.167-2.254.292-3.23.757-3.547.99.21.082.651.181 1.446.181.274 0 .559-.017.867-.036 1.973-.118 4.957-.301 10.942 3.507 1.063.676 1.941 1.27 2.713 1.793 2.939 1.99 4.28 2.899 8.617 3.377 3.06.342 4.52-.444 6.935-1.746 1.684-.905 3.779-2.032 7.109-3.168 7.647-2.607 16.228-5.272 21.887-5.272 3.307 0 4.932.468 5.609 1.614.649 1.098.31 2.731-1.1 5.294-2.287 4.157-5.518 4.783-10.872 5.82-1.3.251-2.776.538-4.392.904-4.15.943-6.317 1.794-8.23 2.546-1.805.708-3.364 1.321-6.055 1.78-5.852.998-11.568 2.982-18.535 6.435-3.108 1.542-6.544 2.093-9.867 2.093z" data-color="3"></path>
        <path fill="#5e5e5e" d="M104.015 98.383a.496.496 0 01-.187-.957c14.118-5.733 20.91-14.876 25.405-20.926a154.45 154.45 0 011.547-2.059c1.297-1.683 2.074-2.866 2.699-3.817 1.67-2.542 2.12-3.224 7.645-6.192a.496.496 0 11.47.876c-5.303 2.848-5.683 3.427-7.284 5.862-.634.964-1.423 2.165-2.742 3.878-.485.63-.995 1.316-1.537 2.045-4.56 6.139-11.453 15.416-25.828 21.255a.543.543 0 01-.188.035z" data-color="3"></path>
        <path fill="#5e5e5e" d="M108.767 107.332a.496.496 0 01-.117-.979c10.777-2.629 15.116-5.391 20.14-8.59 1.405-.895 2.858-1.82 4.511-2.775 2.949-1.707 5.134-4.149 7.246-6.511 3.139-3.51 6.103-6.825 10.996-6.825 7.011 0 7.896 2.03 8.966 5.92a.497.497 0 01-.958.264c-.95-3.455-1.428-5.19-8.008-5.19-4.448 0-7.139 3.009-10.254 6.494-2.165 2.42-4.403 4.923-7.49 6.709-1.633.945-3.077 1.864-4.474 2.754-5.098 3.245-9.501 6.049-20.439 8.716a.61.61 0 01-.119.013z" data-color="3"></path>
        <path fill="#5e5e5e" d="M122.007 113.812a.496.496 0 01-.133-.975c6.935-1.926 13.366-4.542 19.04-6.85 4.334-1.762 8.428-3.428 12.182-4.565 1.909-.578 3.524-1.036 4.931-1.436 5.364-1.521 7.583-2.151 11.539-5.267a.498.498 0 01.615.78c-4.111 3.239-6.546 3.929-11.884 5.443-1.401.398-3.011.854-4.915 1.431-3.709 1.124-7.782 2.78-12.094 4.534-5.7 2.319-12.158 4.946-19.149 6.887a.5.5 0 01-.132.018z" data-color="3"></path>
        <path fill="#5e5e5e" d="M97.903 92.211a.496.496 0 01-.389-.806l1.211-1.529c3.813-4.822 6.331-8.007 9.794-10.01 1.362-.788 2.642-1.708 3.88-2.598 2.159-1.551 4.198-3.017 6.422-3.623a.497.497 0 11.262.959c-2.052.559-4.02 1.974-6.103 3.471-1.258.904-2.559 1.839-3.964 2.65-3.298 1.908-5.77 5.034-9.511 9.766l-1.212 1.53a.49.49 0 01-.39.19z" data-color="3"></path>
        <path fill="#5e5e5e" d="M53.571 74.622a.495.495 0 01-.411-.218c-.738-1.086-2.719-2.455-5.015-4.04-5.419-3.744-12.842-8.87-15.22-17.084a.499.499 0 01.339-.616.5.5 0 01.616.339c2.279 7.874 9.533 12.884 14.83 16.543 2.475 1.709 4.43 3.06 5.272 4.299a.497.497 0 01-.411.777z" data-color="3"></path>
        <path fill="#5e5e5e" d="M81.609 92.211a.496.496 0 01-.497-.497c0-.119 0-.436 2.098-4.251 1.87-3.4 10.796-23.887 14.218-35.084 2.244-7.343 1.57-14.249-1.76-18.023-2.484-2.816-6.272-3.804-11.26-2.943a.497.497 0 01-.17-.98c5.276-.913 9.485.215 12.175 3.264 3.556 4.031 4.309 11.3 1.964 18.97-3.51 11.486-12.358 31.747-14.298 35.272-1.708 3.106-1.953 3.767-1.984 3.866a.493.493 0 01-.486.406z" data-color="3"></path>
        <path fill="#5e5e5e" d="M93.151 92.211a.497.497 0 01-.479-.632c2.566-9.071 10.107-23.505 15.099-33.056.981-1.879 1.864-3.568 2.59-4.99a.497.497 0 11.885.453c-.728 1.424-1.612 3.116-2.595 4.998-4.971 9.515-12.485 23.894-15.023 32.866a.495.495 0 01-.477.361z" data-color="3"></path>
        <path fill="#5e5e5e" d="M61.24 53.948a.498.498 0 01-.481-.624c1.597-6.021 2.415-15.392 1.862-21.334a.498.498 0 01.449-.541.501.501 0 01.541.449c.562 6.04-.269 15.564-1.891 21.681a.497.497 0 01-.48.369z" data-color="3"></path>
        <path fill="#5e5e5e" d="M53.432 74.622a.496.496 0 01-.427-.242c-1.817-3.043-5.051-12.487-5.683-15.693a294.033 294.033 0 01-3.998-26.698.497.497 0 01.989-.101 292.7 292.7 0 003.984 26.608c.62 3.147 3.785 12.403 5.561 15.376a.496.496 0 01-.426.75z" data-color="3"></path>
        <path fill="#5e5e5e" d="M56.826 117.205a.495.495 0 01-.304-.104c-3.332-2.583-7.607-7.864-8.993-12.229a.497.497 0 01.947-.301c1.169 3.682 5.051 8.951 8.654 11.744a.497.497 0 01-.304.89z" data-color="3"></path>
        <path fill="#5e5e5e" d="M152.149 148.724c-3.996.001-7.125-1.317-10.19-2.607-.591-.249-1.199-.51-1.819-.778-4.436-1.913-9.45-4.086-14.024-3.757a.514.514 0 01-.531-.461.497.497 0 01.461-.531c4.787-.339 9.946 1.878 14.487 3.836.617.266 1.222.527 1.812.774 4.675 1.969 9.51 4.004 17.509.974a.502.502 0 01.641.289.498.498 0 01-.289.641c-3.088 1.17-5.721 1.62-8.057 1.62z" data-color="3"></path>
        <path fill="#5e5e5e" d="M170.539 141.077l-.045-.002c-4.561-.404-9.763-1.24-14.794-2.05-5.131-.825-10.436-1.679-15.063-2.073a.496.496 0 01-.453-.537.516.516 0 01.537-.453c4.665.397 9.989 1.254 15.138 2.082 5.014.806 10.198 1.641 14.723 2.041a.498.498 0 11-.043.992z" data-color="3"></path>
        <path fill="#5e5e5e" d="M90.07 171.652h-.02a.498.498 0 01-.477-.516c.501-12.524-.838-30.101-10.063-42.718a.496.496 0 11.802-.586c9.394 12.847 10.761 30.661 10.253 43.343a.495.495 0 01-.495.477z" data-color="3"></path>
        <path fill="#5e5e5e" d="M69.727 161.641a.496.496 0 01-.497-.485 324.07 324.07 0 00-.255-6.808c-.57-12.874-1.108-25.034 6.644-28.828a.499.499 0 01.665.228.498.498 0 01-.228.665c-7.167 3.507-6.643 15.351-6.087 27.891.1 2.251.203 4.578.256 6.828a.498.498 0 01-.485.509h-.013z" data-color="3"></path>
        <path fill="#5e5e5e" d="M69.387 122.451a.496.496 0 01-.352-.849c2.343-2.349 4.172-5.442 5.939-8.433.695-1.175 1.415-2.392 2.142-3.52a.498.498 0 01.835.539c-.717 1.111-1.399 2.265-2.122 3.487-1.799 3.043-3.66 6.191-6.091 8.629a.49.49 0 01-.351.147z" data-color="3"></path>
        <path fill="#5e5e5e" d="M30.277 94.779a95.05 95.05 0 006.418 13.252" data-color="3"></path>
        <path fill="#5e5e5e" d="M90.654 93.928c-.283 0-.535-.095-.714-.176-.421-.188-.974-.538-1.216-1.137-.266-.66 0-1.423.604-1.737.52-.27 1.105-.15 1.492-.071l.727.149a.496.496 0 01.114.935c.103.241.189.514.182.815-.012.575-.404 1.077-.933 1.193a1.076 1.076 0 01-.256.029zm-.587-2.222a.614.614 0 00-.28.054c-.166.086-.206.319-.14.483.092.228.34.441.7.602.201.09.303.095.352.084.087-.019.15-.143.152-.243.004-.197-.113-.436-.226-.667a.496.496 0 01-.05-.248 2.85 2.85 0 00-.508-.065z" data-color="3"></path>
        <path fill="#5e5e5e" d="M93.986 95.555a1.72 1.72 0 01-1.137-.403c-.456-.401-.631-1.026-.436-1.557.195-.528.74-.891 1.309-.891h.006a.5.5 0 01.523-.306c.543.069 1.023.41 1.283.913.238.461.245.969.018 1.392-.227.423-.667.722-1.207.819a2.006 2.006 0 01-.359.033zm-.265-1.857c-.166 0-.331.12-.375.241-.053.143.014.339.159.467.151.132.405.187.662.139.233-.042.428-.162.508-.311.099-.185.016-.388-.025-.466a.73.73 0 00-.384-.348.495.495 0 01-.507.281.234.234 0 00-.038-.003z" data-color="3"></path>
        <path fill="#5e5e5e" d="M90.083 97.452c-.045 0-.089-.001-.134-.004-.57-.036-1.094-.299-1.401-.704-.369-.488-.431-1.119-.157-1.609.313-.56 1.052-.836 1.647-.615a.51.51 0 01.047.02.492.492 0 01.4-.11c.544.089.995.486 1.176 1.036.177.54.057 1.11-.314 1.49-.312.319-.766.496-1.264.496zm-.484-2.016a.424.424 0 00-.341.184c-.078.141-.045.356.082.523.132.175.39.294.672.312.256.012.49-.056.625-.194.132-.135.129-.339.081-.485-.025-.075-.126-.322-.392-.365a.5.5 0 01-.14-.045.494.494 0 01-.493.085.294.294 0 00-.094-.015z" data-color="3"></path>
        <path fill="#5e5e5e" d="M93.29 99.722l-.064-.001a2.033 2.033 0 01-1.4-.638c-.296-.32-.449-.714-.43-1.109.022-.468.307-.909.764-1.181.47-.279 1.016-.314 1.46-.098.042.02.08.046.113.075l.018-.034a.497.497 0 01.679-.18c.711.413 1.01 1.318.681 2.059-.292.658-1.035 1.107-1.821 1.107zm-.287-2.173a.692.692 0 00-.336.099c-.163.097-.273.243-.279.372-.008.172.101.317.167.388.175.189.444.311.702.319.41-.009.81-.209.945-.515.122-.275-.002-.64-.272-.797a.519.519 0 01-.081-.058l-.001.002a.494.494 0 01-.664.229.418.418 0 00-.181-.039z" data-color="3"></path>
        <path fill="#5e5e5e" d="M97.08 99.358c-.124 0-.248-.015-.37-.045-.419-.105-.734-.365-.961-.579-.605-.571-.862-1.151-.765-1.723.072-.425.41-.807.861-.972a1.21 1.21 0 01.71-.046.497.497 0 01.626-.243c.543.212.974.538 1.248.945.382.569.423 1.292.105 1.843-.292.505-.875.82-1.454.82zm-.798-2.405a.292.292 0 00-.096.019c-.129.048-.214.151-.222.204-.05.296.271.65.467.836.139.131.324.288.519.337a.704.704 0 00.722-.307c.13-.226.103-.537-.069-.792a1.47 1.47 0 00-.514-.447.497.497 0 01-.766.159c-.006-.005-.02-.009-.041-.009z" data-color="3"></path>
        <path fill="#5e5e5e" d="M99.701 102.959a1.943 1.943 0 01-1.406-.628c-.394-.424-.55-.957-.428-1.461.123-.507.514-.926 1.073-1.151.607-.243 1.262-.199 1.757.117a.37.37 0 01.04.029.497.497 0 01.852.197c.181.66.066 1.423-.298 1.991a1.928 1.928 0 01-1.314.884c-.09.016-.183.022-.276.022zm.029-2.399a1.14 1.14 0 00-.419.082c-.254.102-.432.275-.478.462-.042.172.03.378.191.551.211.227.52.345.792.301.33-.054.53-.27.64-.44.151-.236.23-.538.225-.834a.5.5 0 01-.52-.01.814.814 0 00-.431-.112z" data-color="3"></path>
        <path fill="#5e5e5e" d="M99.726 99.804a1.808 1.808 0 01-1.465-.787c-.342-.486-.407-1.065-.172-1.548l.131-.27 1.139-.037h.003a.498.498 0 01.799-.106c.512.542.729 1.287.581 1.994a.923.923 0 01-.269.513c-.143.13-.329.206-.571.232-.06.006-.118.009-.176.009zm-.774-1.635a.771.771 0 00.121.276c.174.247.456.388.722.362a1.281 1.281 0 00-.132-.744.49.49 0 01-.272.092l-.439.014z" data-color="3"></path>
        <path fill="#5e5e5e" d="M102.314 104.282c-.256 0-.516-.05-.759-.151-.459-.191-.788-.543-.9-.964-.154-.572.099-1.208.615-1.548a1.666 1.666 0 011.695-.051.753.753 0 01.055.037.5.5 0 01.896 0c.426.883.1 1.985-.727 2.455a1.765 1.765 0 01-.875.222zm-.152-1.926a.645.645 0 00-.346.094c-.157.103-.244.301-.201.46.033.121.15.232.323.304.251.104.557.098.76-.016.318-.182.444-.551.405-.881a.5.5 0 01-.63.115.631.631 0 00-.311-.076z" data-color="3"></path>
        <path fill="#5e5e5e" d="M94.071 102.111c-.654 0-1.388-.427-1.455-1.132-.047-.488.229-.95.818-1.373.276-.198.651-.435 1.105-.495.562-.072 1.123.171 1.356.601a.464.464 0 01.037.087.574.574 0 01.327.282c.194.389.122.983-.665 1.485-.409.262-.907.533-1.494.544l-.029.001zm.673-2.02a.431.431 0 00-.071.005c-.234.032-.464.178-.658.317-.313.225-.416.395-.409.473.008.081.243.25.476.231.339-.007.684-.2.977-.388.2-.128.291-.245.303-.282l-.006-.012a.496.496 0 01-.333-.248c-.022-.04-.137-.096-.279-.096z" data-color="3"></path>
        <path fill="#5e5e5e" d="M94.434 104.934c-.705 0-1.426-.23-1.679-.903-.219-.583.07-1.266.687-1.622.402-.233.906-.328 1.541-.289a.49.49 0 01.199.054.497.497 0 01.88-.46c.208.36.444.768.522 1.243.099.605-.109 1.192-.544 1.532-.307.242-.685.333-1.014.39a3.17 3.17 0 01-.592.055zm.287-1.827c-.331 0-.593.054-.782.163-.176.102-.296.298-.253.412.081.217.615.318 1.169.221.207-.037.437-.087.572-.193.179-.141.207-.406.177-.589a1.713 1.713 0 00-.156-.456.484.484 0 01-.525.447 4.732 4.732 0 00-.202-.005z" data-color="3"></path>
        <path fill="#5e5e5e" d="M99.315 108.083h-.008a1.687 1.687 0 01-1.185-.506 1.386 1.386 0 01-.417-.985c.004-.388.198-.765.533-1.034a1.494 1.494 0 011.193-.32.497.497 0 01.77-.369c.656.434.985 1.2.819 1.904-.18.749-.911 1.31-1.705 1.31zm-.128-1.873c-.11 0-.23.045-.328.123-.099.08-.161.183-.162.271-.001.09.046.188.133.277a.703.703 0 00.481.209h.003c.328 0 .665-.248.735-.544.052-.221-.033-.48-.208-.679a.494.494 0 01-.579.352.302.302 0 00-.075-.009z" data-color="3"></path>
        <path fill="#5e5e5e" d="M103.229 108.853c-.42 0-.836-.148-1.126-.437a1.312 1.312 0 01-.35-1.156c.075-.421.342-.776.716-.952a.497.497 0 11.421.901c-.117.054-.15.175-.158.224a.318.318 0 00.076.281c.189.189.62.193.854.008a.653.653 0 00.16-.79.773.773 0 00-.434-.382.499.499 0 01-.307-.633.501.501 0 01.633-.307c.43.149.794.47.998.88a1.643 1.643 0 01-.432 2.01 1.693 1.693 0 01-1.051.353z" data-color="3"></path>
        <path fill="#5e5e5e" d="M103.785 106.352c-.05 0-.101-.002-.151-.005-.596-.04-1.107-.336-1.336-.772a1.208 1.208 0 01.301-1.471 1.39 1.39 0 011.41-.205.5.5 0 01.267-.516.502.502 0 01.669.218c.34.67.454 1.437.323 2.163l-.055.307-.3.083c-.374.105-.741.198-1.128.198zm.993-.675h.01-.01zm-1.301-.888a.375.375 0 00-.238.076c-.075.062-.102.175-.062.25.065.123.284.225.521.241.191.012.402-.019.625-.073a2.401 2.401 0 00-.048-.603.498.498 0 01-.632.146.359.359 0 00-.166-.037z" data-color="3"></path>
        <path fill="#5e5e5e" d="M105.431 109.988c-.29 0-.574-.082-.803-.252-.279-.207-.466-.521-.557-.935-.102-.457-.049-.873.156-1.201.115-.184.279-.33.465-.43a.497.497 0 01-.261-.555.603.603 0 01.38-.431c.272-.103.599.004.8.151.41.307.864.69 1.135 1.211.332.637.297 1.348-.09 1.857-.289.379-.764.585-1.225.585zm-.17-1.971a.26.26 0 00-.191.111c-.083.134-.053.345-.028.459.038.173.099.291.181.352.159.118.507.043.643-.138.181-.238.113-.577-.001-.795a1.297 1.297 0 00-.066-.114.497.497 0 01-.512.128.103.103 0 00-.026-.003z" data-color="3"></path>
        <path fill="#5e5e5e" d="M106.768 112.797a1.518 1.518 0 01-1.407-.925 1.38 1.38 0 01.008-1.121c.278-.596.98-.933 1.653-.853a2.641 2.641 0 00-.082-.072.497.497 0 11.637-.763c.774.645 1.142 1.502.984 2.293-.096.48-.432.927-.898 1.195a1.797 1.797 0 01-.895.246zm.063-1.915c-.24 0-.486.129-.562.291a.38.38 0 00.008.311.525.525 0 00.306.291.747.747 0 00.585-.084c.217-.125.378-.328.418-.529a.945.945 0 00.004-.327.494.494 0 01-.535.091.55.55 0 00-.224-.044z" data-color="3"></path>
        <path fill="#5e5e5e" d="M100.607 112.558c-.51 0-1.013-.17-1.37-.496a1.646 1.646 0 01-.53-1.222c.002-.443.186-.86.505-1.145.514-.461 1.203-.538 1.916-.492a.497.497 0 01.738-.189c.523.377.811 1.003.772 1.677a1.945 1.945 0 01-.985 1.604 2.163 2.163 0 01-1.046.263zm.194-2.372c-.379 0-.713.059-.926.249a.547.547 0 00-.174.41.657.657 0 00.206.483c.301.275.868.317 1.264.098a.955.955 0 00.475-.793 1.052 1.052 0 00-.057-.407.49.49 0 01-.121.002 6.473 6.473 0 00-.667-.042z" data-color="3"></path>
        <path fill="#5e5e5e" d="M95.965 110.214c-.51 0-1.003-.204-1.302-.573a1.356 1.356 0 01-.282-1.068 1.56 1.56 0 01.666-1.06c.604-.408 1.494-.417 2.166-.02.306.181.489.433.523.702a.498.498 0 01.161.553c-.22.635-.683 1.126-1.268 1.346-.215.081-.441.12-.664.12zm.13-2.014a.868.868 0 00-.49.137.57.57 0 00-.241.381.377.377 0 00.07.296c.157.194.543.263.844.15a1.15 1.15 0 00.574-.51.508.508 0 01-.11-.273 1.296 1.296 0 00-.647-.181z" data-color="3"></path>
        <path fill="#5e5e5e" d="M96.54 105.457a1.53 1.53 0 01-.786-.21c-.56-.337-.788-1.034-.52-1.588.232-.48.8-.79 1.445-.79.708 0 1.383.345 1.762.901a.496.496 0 01-.457.774 1.537 1.537 0 01-.598.679 1.628 1.628 0 01-.846.234zm.139-1.594c-.247 0-.488.101-.55.229-.038.079.013.228.137.303.165.098.424.09.605-.021a.532.532 0 00.256-.423 1.208 1.208 0 00-.448-.088z" data-color="3"></path>
        <path fill="#5e5e5e" d="M92.592 107.342a1.749 1.749 0 01-1.4-.74c-.329-.459-.386-1.004-.154-1.46l.087-.17.179-.068a4.901 4.901 0 012.09-.295.494.494 0 01.526.096.5.5 0 01.263.472 1.62 1.62 0 01-.072 1.134 1.68 1.68 0 01-1.299 1.016c-.074.01-.147.015-.22.015zm-.7-1.589c.008.115.072.22.108.271.134.187.385.361.669.319.269-.039.45-.247.528-.428a.683.683 0 00.059-.319c-.46-.03-.929.023-1.364.157z" data-color="3"></path>
        <path fill="#5e5e5e" d="M95.218 113.481c-.265 0-.503-.035-.677-.072-.238-.049-.543-.133-.803-.342a1.214 1.214 0 01-.441-1.121c.064-.53.423-1.019.914-1.246.885-.408 1.861-.078 2.364.154a.507.507 0 01.13.086.5.5 0 01.173.128c.232.267.333.616.286.983a1.56 1.56 0 01-.666 1.069c-.411.28-.878.361-1.28.361zm-.082-1.978c-.191 0-.363.033-.509.1a.622.622 0 00-.344.464c-.018.15.05.205.076.225.097.078.266.119.384.145.484.1.92.05 1.195-.137a.565.565 0 00.239-.376.258.258 0 00-.028-.171c-.361-.166-.71-.25-1.013-.25z" data-color="3"></path>
        <path fill="#5e5e5e" d="M97.162 115.256c-.319 0-.647-.086-.929-.258-.429-.261-.664-.665-.646-1.107.029-.704.639-1.192 1.231-1.364.363-.106.732-.12 1.08-.103.014-.009.028-.016.043-.024a.495.495 0 01.548.077.497.497 0 01.296.732c.113.741-.206 1.487-.849 1.853-.228.13-.498.194-.774.194zm.505-1.844c-.2 0-.394.017-.571.069-.278.081-.509.282-.515.45-.004.104.129.193.17.217.215.132.514.154.694.049.281-.16.388-.478.362-.782a3.34 3.34 0 00-.14-.003z" data-color="3"></path>
        <path fill="#5e5e5e" d="M100.8 115.311c-.327 0-.662-.107-.939-.311-.361-.265-.563-.646-.557-1.046.007-.418.255-.813.661-1.056.436-.261.964-.289 1.375-.077.016.008.029.017.043.025l-.008-.074a.496.496 0 11.988-.106c.044.41.093.872-.029 1.347-.155.594-.565 1.053-1.096 1.229-.14.047-.288.069-.438.069zm-.057-1.637a.533.533 0 00-.268.079c-.104.062-.176.15-.177.219-.001.071.057.158.151.228a.564.564 0 00.477.099c.247-.082.392-.33.446-.536.007-.029.014-.058.019-.088a.5.5 0 01-.508.03.281.281 0 00-.14-.031z" data-color="3"></path>
        <path fill="#5e5e5e" d="M103.721 115.988c-.271 0-.526-.074-.743-.217-.51-.402-.617-1.081-.28-1.573.322-.466.974-.658 1.521-.448a.502.502 0 01.268.248 4.85 4.85 0 00-.082-.754.497.497 0 11.981-.161c.086.519.215 1.304-.147 1.992-.216.411-.646.74-1.122.863a1.61 1.61 0 01-.396.05zm.041-1.328c-.101 0-.207.046-.247.102-.035.05-.023.152.044.206.081.05.231.027.311.008a.799.799 0 00.506-.397.503.503 0 01-.517.099.261.261 0 00-.097-.018z" data-color="3"></path>
        <path fill="#5e5e5e" d="M102.834 113.498c-.307 0-.619-.091-.875-.262-.312-.209-.505-.509-.543-.845a.498.498 0 01.438-.55.512.512 0 01.55.438c.004.039.046.089.109.132.126.083.31.119.444.078.301-.085.477-.392.494-.651.021-.3-.102-.642-.368-1.015a.497.497 0 01.809-.577c.404.568.588 1.127.55 1.662-.05.714-.549 1.347-1.213 1.536a1.46 1.46 0 01-.395.054z" data-color="3"></path>
        <path fill="#5e5e5e" d="M87.89 101.972a2.104 2.104 0 01-1.442-.589c-.419-.409-.668-.98-.719-1.651-.018-.233-.016-.577.207-.872.19-.252.506-.414.913-.467 1.099-.145 2.225.512 2.563 1.494a.497.497 0 01-.939.323c-.183-.533-.869-.914-1.495-.832-.164.022-.236.067-.248.081-.001.003-.021.042-.009.197.023.298.115.716.423 1.017.262.255.659.368.968.277a.496.496 0 11.284.952c-.164.047-.334.07-.506.07z" data-color="3"></path>
        <path fill="#5e5e5e" d="M91.164 105.432c-.38 0-.768-.098-1.122-.29-.505-.275-.869-.713-1-1.203-.132-.496-.027-1.047.287-1.511.119-.175.263-.331.425-.463-.631-.333-1.008-.946-.933-1.546.05-.401.337-.769.746-.96.394-.184.825-.165 1.156.048a.497.497 0 01-.539.835c-.039-.026-.117-.017-.197.018-.103.048-.174.132-.18.183-.025.2.195.458.501.585.191.081.388.096.49.04.267-.152.577-.097.753.132.228.296.119.774-.12 1.019a.657.657 0 01-.188.136 3 3 0 011.183 1.843c.019.106.079.425-.122.704-.143.199-.35.283-.493.33-.207.067-.425.1-.647.1zm-.737-2.733a1.221 1.221 0 00-.274.286c-.153.225-.208.479-.149.697.061.228.248.442.513.586.292.158.628.209.915.139a2.019 2.019 0 00-.81-1.176.497.497 0 01-.195-.532zm.861-.665l-.002.001.002-.001z" data-color="3"></path>
        <path fill="#5e5e5e" d="M85.109 97.89c-.022 0-.044 0-.066-.002a1.298 1.298 0 01-.97-.513c-.331-.458-.304-1.01-.287-1.376.011-.226.044-.916.638-1.184.334-.153.685-.082.895-.039 1.082.215 1.662.762 1.551 1.462a.496.496 0 11-.981-.155l.491.078-.491-.08c-.028-.061-.283-.234-.765-.33-.06-.012-.241-.05-.29-.03 0 .003-.043.065-.055.326-.015.312-.018.584.099.746.054.075.213.12.264.099a.488.488 0 01.694-.031.505.505 0 01.029.708.997.997 0 01-.756.321z" data-color="3"></path>
        <path fill="#5e5e5e" d="M85.8 95.445c-.383 0-.757-.142-1.009-.395-.47-.472-.572-1.219-.265-1.951l.119-.285.309-.018c1.108-.067 2.188.62 2.524 1.596a.496.496 0 01-.673.614c-.161.201-.4.344-.689.406-.104.022-.21.033-.316.033zm-.445-1.638c-.026.199.003.405.141.542.08.082.265.121.414.091.081-.017.117-.049.121-.057a.506.506 0 01.135-.196 1.684 1.684 0 00-.811-.38z" data-color="3"></path>
        <path fill="#5e5e5e" d="M87.583 98.718c-.233 0-.478-.022-.718-.096-.601-.185-1.013-.682-1.004-1.209.007-.339.212-.664.534-.848a.976.976 0 01.969-.026c.158.088.248.25.254.419a.493.493 0 01.352.035c.497.249.76.824.61 1.338l-.095.327-.339.029c-.172.014-.363.031-.563.031zm-.672-1.295c-.05.068.063.193.246.249.055.017.114.03.175.038a.504.504 0 01-.082-.258.5.5 0 01-.339-.029z" data-color="3"></path>
        <path fill="#5e5e5e" d="M80.6 95.917c-.084 0-.169-.005-.254-.017-.495-.065-.91-.316-1.139-.689-.253-.412-.235-.946.049-1.394.3-.474.815-.734 1.336-.677.777.084 1.328.703 1.635 1.841a.497.497 0 01-.592.613 1.75 1.75 0 01-1.035.323zm-.149-1.79c-.158 0-.288.116-.355.222-.062.098-.105.239-.042.342.07.115.228.198.422.224.24.031.483-.033.62-.162l.004-.004c-.249-.581-.515-.609-.615-.62l-.034-.002z" data-color="3"></path>
        <path fill="#5e5e5e" d="M82.869 102.174c-.238 0-.47-.043-.677-.139-.286-.133-.92-.567-.637-1.713.085-.345.276-.607.444-.839.19-.262.306-.432.3-.637-.005-.198-.116-.39-.244-.611-.235-.409-.591-1.026-.126-1.837a.496.496 0 11.861.495c-.172.3-.107.442.125.845.162.281.363.631.376 1.08.015.553-.265.938-.49 1.248-.132.181-.245.337-.283.493-.065.263-.053.458.031.535.102.093.399.131.75.011.338-.114.498-.294.508-.35-.186-.201-.196-.542.005-.728.202-.187.495-.2.681 0 .374.403.409.924.091 1.361-.318.441-1.039.786-1.715.786z" data-color="3"></path>
        <path fill="#5e5e5e" d="M85.982 105.813c-.379 0-.773-.112-1.11-.327-.641-.409-.945-1.118-.738-1.725.128-.378.477-.676.912-.78.403-.095.8.003 1.065.262a.497.497 0 01-.697.709c-.007-.008-.058-.024-.137-.004-.11.026-.189.095-.201.133-.055.162.094.416.332.568.275.178.638.223.879.112a.438.438 0 00.227-.25c.013-.04.022-.096-.004-.143a.497.497 0 11.859-.498c.164.281.197.616.093.942a1.432 1.432 0 01-.761.854 1.792 1.792 0 01-.719.147z" data-color="3"></path>
        <path fill="#5e5e5e" d="M89.619 109.624c-.3 0-.549-.112-.71-.196-1.03-.542-1.606-1.713-1.371-2.787l.083-.379 1.003-.029a.509.509 0 01.511.482.497.497 0 01-.483.511l-.168.005c.008.112.031.223.065.332a.496.496 0 01.396-.349c.614-.104 1.395.13 1.703.767a1.15 1.15 0 01-.077 1.098 1.135 1.135 0 01-.952.545zm-.712-1.437c.131.144.287.268.463.361.205.106.332.042.356.004.034-.054.04-.112.027-.138-.079-.161-.381-.263-.647-.22a.51.51 0 01-.199-.007z" data-color="3"></path>
        <path fill="#5e5e5e" d="M85.718 108.908c-.226 0-.458-.046-.679-.139-.48-.201-.814-.587-.892-1.034-.079-.443.1-.907.479-1.242.426-.376 1.005-.513 1.508-.357a.496.496 0 01.34.369c.342.17.599.492.665.872.083.481-.145.984-.58 1.282a1.485 1.485 0 01-.841.249zm-.172-1.816a.702.702 0 00-.261.147c-.09.08-.18.207-.159.324.019.108.136.222.298.29.205.085.436.081.574-.014.109-.075.179-.201.163-.293-.013-.073-.107-.166-.209-.175a.495.495 0 01-.406-.279z" data-color="3"></path>
        <path fill="#5e5e5e" d="M83.09 107.18c-.314 0-.628-.076-.887-.196-.458-.211-.73-.54-.765-.926a.894.894 0 01.329-.776c.326-.281.847-.395 1.301-.281a.358.358 0 01.035.011.532.532 0 01.183-.065c.414-.061.83.156 1.038.559.22.425.16.929-.149 1.252-.29.302-.688.422-1.085.422zm-.627-1.175c.033.01.084.044.158.078.31.145.692.139.838-.014.016-.026-.009-.121-.044-.144a.506.506 0 01-.214-.015.504.504 0 01-.373.054.583.583 0 00-.365.041z" data-color="3"></path>
        <path fill="#5e5e5e" d="M81.125 104.374c-.426 0-.855-.184-1.163-.502-.296-.307-.446-.705-.411-1.092a.508.508 0 01.539-.451.496.496 0 01.451.539c-.009.1.041.214.137.314.127.13.316.197.473.198a.616.616 0 00.438-.24c.081-.107.116-.223.095-.321a.496.496 0 11.971-.21c.083.382-.018.796-.277 1.135a1.6 1.6 0 01-1.175.628 1.015 1.015 0 01-.078.002z" data-color="3"></path>
        <path fill="#5e5e5e" d="M78.464 102.673c-.48 0-.946-.206-1.279-.453-.565-.419-.821-.982-.685-1.506.169-.644.85-.958 1.412-.977.52-.029 1.004.164 1.39.312a.497.497 0 01.242.732c.15.173.237.398.243.647.01.472-.265.917-.686 1.11a1.524 1.524 0 01-.637.135zm-.48-1.944h-.038c-.24.008-.457.133-.484.235-.024.09.079.281.315.457.253.188.647.335.91.212.087-.04.118-.172.102-.209a.485.485 0 01-.28-.604 1.857 1.857 0 00-.525-.091z" data-color="3"></path>
        <path fill="#5e5e5e" d="M79.641 100.431c-.58 0-1.105-.427-1.29-.93a1.845 1.845 0 01-.1-.751c-.08-.017-.161-.038-.242-.058-.198-.049-.526-.134-.645-.109-.141.03-.434.09-.706-.083-.24-.151-.313-.396-.341-.489-.172-.579-.111-1.124.172-1.537.339-.493 1.118-.799 1.736-.463a.497.497 0 01-.474.874c-.118-.064-.352.018-.444.152-.115.168-.104.393-.07.562.364-.036.705.051 1.012.128.053.014.117.03.18.044l.468-2.019.427 2.159a.493.493 0 01.378-.018c.534.192.93.578 1.06 1.034a1.183 1.183 0 01-.759 1.446 1.15 1.15 0 01-.362.058zm-.396-1.664a.92.92 0 00.038.392c.058.158.271.317.415.27.085-.027.132-.148.109-.226-.041-.143-.218-.292-.441-.372a.558.558 0 01-.121-.064z" data-color="3"></path>
        <path fill="#5e5e5e" d="M86.234 103.081a.99.99 0 01-.645-.232c-.472.115-.96.052-1.333-.179-.538-.335-.758-1.007-.5-1.532.33-.669 1.246-.829 1.895-.555.558.232.917.69 1.211 1.101.097.137.322.453.206.837a.766.766 0 01-.437.479.993.993 0 01-.397.081zm-1.231-1.633c-.172 0-.32.058-.355.129-.025.05.02.178.133.248a.66.66 0 00.343.085.492.492 0 01.319-.318 1.02 1.02 0 00-.175-.094.711.711 0 00-.265-.05z" data-color="3"></path>
        <path fill="#5e5e5e" d="M103.439 120.212c-.336 0-.674-.099-.948-.292a1.483 1.483 0 01-.617-1.03 1.444 1.444 0 01.322-1.121c.302-.352.852-.575 1.318-.315a.496.496 0 01-.45.885.288.288 0 00-.112.075.45.45 0 00-.093.348.493.493 0 00.202.344c.177.124.451.15.642.055.153-.076.253-.245.222-.377a.498.498 0 01.969-.225c.136.582-.18 1.21-.75 1.493-.217.108-.46.16-.705.16z" data-color="3"></path>
        <path fill="#5e5e5e" d="M106.723 118.432h-.025a1.226 1.226 0 01-1.036-.64.957.957 0 01.016-.978.496.496 0 01.856.503c.021.045.099.119.183.121.187.013.39-.192.431-.369.023-.107-.048-.268-.162-.366-.046-.038-.131-.098-.214-.064a.497.497 0 01-.366-.924c.408-.162.865-.074 1.225.232.402.342.592.868.487 1.339-.148.658-.745 1.146-1.395 1.146z" data-color="3"></path>
        <path fill="#5e5e5e" d="M103.061 118.26a2.992 2.992 0 01-1.248-.268c-.151-.069-.339-.175-.455-.382a.707.707 0 01.024-.74c.193-.302.615-.505 1.023-.461.104.009.21.027.315.047.116.021.294.055.343.028a.5.5 0 01.665.23.498.498 0 01-.163.625.498.498 0 01-.23.91 3.606 3.606 0 01-.274.011z" data-color="3"></path>
        <path fill="#5e5e5e" d="M98.813 117.958c-.31 0-.608-.083-.855-.249-.537-.363-.77-1.034-.553-1.595.232-.601.964-.956 1.592-.78a.498.498 0 01-.269.957c-.149-.043-.351.066-.396.181-.049.126.033.312.181.412.158.105.415.106.645.002.181-.083.304-.214.319-.34a.5.5 0 01.554-.432.495.495 0 01.432.554c-.058.474-.392.892-.893 1.121a1.792 1.792 0 01-.757.169z" data-color="3"></path>
        <path fill="#5e5e5e" d="M95.862 117.544c-.157 0-.316-.017-.474-.054-.547-.127-.985-.452-1.202-.891-.163-.332-.145-.662.049-.906.182-.23.458-.287.576-.312.483-.101.975-.12 1.464-.063a.496.496 0 01.435.551.492.492 0 01-.552.435 3.536 3.536 0 00-.953.016.898.898 0 00.407.202c.277.067.564.02.745-.118a.498.498 0 01.606.788c-.301.23-.692.352-1.101.352z" data-color="3"></path>
        <path fill="#5e5e5e" d="M93.104 116.639c-.451 0-.865-.151-1.206-.276-.209-.076-.601-.216-.78-.593a.84.84 0 01.04-.792c.196-.336.617-.582 1.05-.614.198-.015.397.003.597.021.195.02.381.038.528.005a.503.503 0 01.59.383.484.484 0 010 .204.498.498 0 01.634.491c-.018.68-.668 1.106-1.271 1.162a1.879 1.879 0 01-.182.009zm-.964-1.247l.097.036c.323.118.657.239.957.212.222-.02.368-.156.369-.199a.504.504 0 01.01-.087l-.033.009c-.297.063-.58.036-.829.013-.143-.014-.286-.033-.43-.019a.406.406 0 00-.141.035z" data-color="3"></path>
        <path fill="#5e5e5e" d="M92.336 111.909a1.05 1.05 0 01-.134-.008c-.521-.068-1.107-.181-1.457-.654a1.161 1.161 0 01-.203-.9 1.46 1.46 0 01.622-.943c.447-.3 1.06-.397 1.725-.279a.497.497 0 11-.176.978c-.406-.075-.768-.027-.995.125a.468.468 0 00-.197.289c-.015.086.014.126.024.139.115.157.492.219.721.249a.498.498 0 01.858.065c.08.164.055.471-.052.619-.183.253-.506.32-.736.32z" data-color="3"></path>
        <path fill="#5e5e5e" d="M88.91 113.005c-.322 0-.665-.096-.991-.283-.61-.353-1.055-1.054-.725-1.711.205-.41.69-.674 1.234-.674.412 0 .788.137 1.089.247a.496.496 0 01.312.59c.049.03.094.068.132.114a.928.928 0 01.178.842 1.175 1.175 0 01-.715.785c-.161.06-.334.09-.514.09zm-.481-1.674c-.176 0-.32.073-.346.125-.028.056.093.266.333.405.24.138.491.183.658.124.064-.024.103-.09.105-.113a.457.457 0 01-.102-.392c-.221-.078-.443-.149-.648-.149z" data-color="3"></path>
        <path fill="#5e5e5e" d="M85.713 111.88a1.75 1.75 0 01-.887-.23c-.608-.356-.858-1.093-.571-1.676.15-.305.456-.541.819-.632.31-.081.624-.045.881.092a.467.467 0 01.076-.017.958.958 0 01.762.243c.232.205.372.506.372.805 0 .455-.253.814-.438 1.077l-.08.114-.128.056a2.023 2.023 0 01-.806.168zm-.311-1.586a.34.34 0 00-.085.012c-.087.022-.153.072-.171.107-.053.11.035.294.183.38.176.105.434.121.673.051.087-.131.17-.275.17-.378a.494.494 0 01-.297-.064.504.504 0 01-.377-.084.166.166 0 00-.096-.024z" data-color="3"></path>
        <path fill="#5e5e5e" d="M89.596 117.135a1.6 1.6 0 01-.757-.186 1.57 1.57 0 01-.794-1.665c.089-.455.366-.824.619-1.134a.497.497 0 11.769.629c-.184.226-.369.466-.413.695a.575.575 0 00.29.6c.217.117.552.075.69-.085a.262.262 0 00.05-.216.25.25 0 00-.118-.178.496.496 0 11.484-.867c.322.18.545.497.612.87.067.377-.032.754-.273 1.036-.277.325-.715.501-1.159.501z" data-color="3"></path>
        <path fill="#5e5e5e" d="M95.924 121.483c-.218 0-.447-.037-.678-.11-.539-.171-1.135-.592-1.189-1.261-.031-.386.189-.777.559-.997.35-.207.761-.209 1.07-.006a.496.496 0 01-.525.843c-.04.01-.104.062-.114.096.01.102.2.281.501.377.246.079.476.084.636.017.105-.044.16-.131.161-.158a.496.496 0 11.963-.245c.135.519-.183 1.087-.739 1.319a1.613 1.613 0 01-.645.125z" data-color="3"></path>
        <path fill="#5e5e5e" d="M101.571 123.573c-.214 0-.423-.043-.611-.129-.532-.246-.868-.772-.943-1.439-.358-.06-.748-.231-1.097-.383-.183-.081-.347-.155-.463-.187a1.475 1.475 0 01-.894-.703 1.231 1.231 0 01-.118-.955c.203-.688.929-1.034 1.559-1.071.592-.032 1.124.143 1.597.299.328.108.539.463.46.775l-.027.105.197-.266-.222 1.866c-.017.141-.078.852.367 1.057.135.062.319.05.483-.029.138-.065.239-.169.265-.27.023-.092-.006-.206-.081-.311a.63.63 0 00-.443-.264.497.497 0 01-.448-.542.506.506 0 01.542-.448c.457.044.891.298 1.162.68.242.343.326.754.231 1.128-.099.392-.391.729-.8.924a1.685 1.685 0 01-.716.163zm-2.417-3.879c-.03 0-.061.001-.09.003-.314.018-.612.181-.665.361-.022.074.012.151.034.191a.49.49 0 00.29.228 5.2 5.2 0 01.596.234c.223.097.66.288.871.319l.604-.819-.359-.039a.498.498 0 01-.372-.299c-.305-.097-.613-.179-.909-.179z" data-color="3"></path>
        <path fill="#5e5e5e" d="M76.127 96.762c-.246 0-.431-.119-.523-.178-1.198-.767-1.361-1.525-1.287-2.025.066-.446.384-.845.852-1.066.509-.241 1.098-.229 1.535.034a.497.497 0 01.195.637.505.505 0 01.206.102c.369.307.488.842.296 1.332-.141.36-.408.629-.622.846-.095.096-.294.297-.607.315a.34.34 0 01-.045.003zm-.199-2.448a.79.79 0 00-.334.077c-.164.077-.277.197-.294.313-.042.286.247.654.796 1.014.182-.182.322-.334.38-.482.035-.089.024-.18-.007-.205a.497.497 0 01-.132-.593.506.506 0 01-.144-.058.51.51 0 00-.265-.066z" data-color="3"></path>
        <path fill="#5e5e5e" d="M97.231 124.853c-.388 0-.783-.123-1.101-.349-.336-.24-.555-.574-.614-.94-.071-.44.112-.895.491-1.218.394-.335.9-.443 1.351-.295a.495.495 0 01.329.369.498.498 0 01.348-.263c.25-.047.5.023.691.194.231.205.364.547.34.871-.058.775-.719 1.465-1.537 1.607a1.943 1.943 0 01-.298.024zm-.279-1.874a.49.49 0 00-.3.123c-.107.091-.169.213-.154.302.022.138.141.241.21.29a.893.893 0 00.655.153c.37-.063.691-.378.715-.701 0-.004 0-.006.002-.009a.496.496 0 01-.434-.391.499.499 0 01-.6.247.306.306 0 00-.094-.014z" data-color="3"></path>
        <path fill="#5e5e5e" d="M100.146 127.224c-.347 0-.701-.107-1.004-.309-.394-.262-.648-.654-.698-1.073a1.115 1.115 0 01.286-.878.86.86 0 01.593-.275.47.47 0 01.047-.042c.329-.261.797-.351 1.252-.239.452.111.823.401.992.776.157.351.148.748-.024 1.12a1.61 1.61 0 01-1.002.858 1.605 1.605 0 01-.442.062zm-.695-1.545c.005.188.1.315.242.41a.783.783 0 00.621.119.611.611 0 00.374-.321c.029-.062.069-.182.019-.295-.042-.093-.171-.181-.321-.218-.158-.038-.311-.017-.399.052a.49.49 0 01-.242.103.506.506 0 01-.294.15z" data-color="3"></path>
        <path fill="#5e5e5e" d="M93.835 123.9c-.362 0-.704-.107-1.024-.227-.186-.07-.62-.234-.754-.666-.05-.164-.072-.425.106-.747.397-.717 1.349-1.075 2.17-.816a.496.496 0 01.265.745h.003a.506.506 0 01.575.416c.114.651-.451 1.166-1.039 1.268a1.646 1.646 0 01-.302.027zm-.778-1.2c.026.012.06.026.104.043.275.103.566.192.804.152.129-.023.221-.112.232-.144a.48.48 0 01.068-.345.47.47 0 01-.234-.017c-.34-.105-.79.039-.974.311z" data-color="3"></path>
        <path fill="#5e5e5e" d="M92.806 127.143c-.335 0-.678-.104-.957-.3-.335-.235-.543-.579-.568-.946-.031-.434.214-.859.642-1.109.442-.26.955-.264 1.339-.012a.496.496 0 01.223.375.5.5 0 01.413-.306.505.505 0 01.541.448 1.717 1.717 0 01-1.223 1.794 1.48 1.48 0 01-.41.056zm-.18-1.558a.4.4 0 00-.2.06c-.109.064-.156.147-.154.182.005.065.06.141.148.202a.653.653 0 00.526.102c.345-.097.53-.462.503-.744v-.006a.495.495 0 01-.732.226.162.162 0 00-.091-.022z" data-color="3"></path>
        <path fill="#5e5e5e" d="M77.443 105.402a.496.496 0 01-.466-.669c.178-.482-.046-1.073-.49-1.405-.139.161-.257.334-.285.498a.32.32 0 00.075.242c.036.043.074.064.114.064h.001a.497.497 0 01.001.994h-.002c-.335 0-.644-.148-.871-.414a1.305 1.305 0 01-.297-1.048c.095-.571.51-.995.812-1.305l.235-.24.31.128c1.118.46 1.727 1.758 1.331 2.831a.502.502 0 01-.468.324z" data-color="3"></path>
        <path fill="#5e5e5e" d="M78.377 107.268c-.13 0-.259-.016-.384-.049-.589-.152-1.039-.659-1.093-1.231a1.024 1.024 0 01.216-.762c.331-.394.876-.394 1.138-.394.306 0 .686 0 1.043.146.505.205.818.672.76 1.135a.496.496 0 01-.38.423.476.476 0 01-.098.189c-.282.344-.742.543-1.202.543zm-.123-1.441c-.277 0-.359.029-.384.046a.517.517 0 00.373.385c.202.053.452-.019.571-.164a.489.489 0 01.197-.145.425.425 0 00-.088-.05c-.178-.072-.428-.072-.669-.072z" data-color="3"></path>
        <path fill="#5e5e5e" d="M74.535 104.148l-.197-.068c-1.559-.539-1.685-1.335-1.621-1.761.048-.318.22-.592.499-.794.017-.013.034-.024.052-.036-.185-.151-.4-.323-.506-.371-.206-.091-.488-.216-.689-.469-.304-.386-.26-.93.098-1.214.252-.2.564-.202.731-.203l1.584-.008h.003a.498.498 0 01.003.994l-1.294.007c.229.111.48.316.745.532.14.115.359.294.533.411.152-.01.333.014.474.039l.868.151-.578.664c-.283.325-.632.31-.983.152a1.039 1.039 0 00-.46.156c-.087.062-.095.113-.098.133-.021.141.209.378.752.598a1.14 1.14 0 00.371-.437.497.497 0 01.901.417c-.2.433-.557.792-1.003 1.013l-.185.094z" data-color="3"></path>
        <path fill="#5e5e5e" d="M74.492 98.785a1.27 1.27 0 01-.459-.084c-.581-.23-.964-.816-1-1.53-.023-.468.106-.866.372-1.152.372-.4 1.007-.506 1.445-.243.231.139.3.432.166.667a.506.506 0 01-.678.185c-.03-.015-.147.005-.206.067-.106.114-.113.316-.107.427.012.239.116.554.372.655.126.049.322-.03.356-.088a.475.475 0 01.423-.538c.273-.038.519.176.556.447.046.341-.098.669-.393.9a1.388 1.388 0 01-.847.287z" data-color="3"></path>
        <path fill="#5e5e5e" d="M71.891 99.815a3.12 3.12 0 01-.475-.038c-.665-.104-1.147-.428-1.321-.888-.25-.661.204-1.323.787-1.581.542-.24 1.136-.181 1.535-.116a.487.487 0 01.239.109.5.5 0 01.582-.028c.308.201.501.535.531.915.033.427-.137.854-.456 1.14-.353.317-.856.487-1.422.487zm-.114-1.688c-.198 0-.359.029-.492.088-.181.08-.287.251-.26.321.034.092.233.21.546.259.445.071.857-.008 1.078-.207a.42.42 0 00.13-.326c-.009-.111-.065-.148-.083-.16a.804.804 0 01-.047-.034.497.497 0 01-.39.103 2.968 2.968 0 00-.482-.044z" data-color="3"></path>
        <path fill="#5e5e5e" d="M76.375 94.042a.47.47 0 01-.168-.03 1.522 1.522 0 01-.883-.844 1.39 1.39 0 01.006-1.113c.33-.716 1.29-1.076 2.058-.767.388.156.697.474.846.872.139.374.121.781-.052 1.117a.496.496 0 11-.884-.454.396.396 0 00.005-.316.515.515 0 00-.286-.298c-.274-.11-.676.025-.785.261a.393.393 0 00.008.313c.057.135.17.245.303.293a.497.497 0 01-.168.966z" data-color="3"></path>
        <path fill="#5e5e5e" d="M79.289 94.072c-.427 0-.82-.199-1.021-.525a1.131 1.131 0 01-.106-.949c.12-.382.417-.707.792-.868.543-.234 1.245-.165 1.828.181a.497.497 0 11-.507.855c-.311-.184-.677-.232-.929-.123a.431.431 0 00-.236.253c-.017.053-.016.096.004.128.008.011.052.039.128.05.094.014.154-.011.167-.022a.483.483 0 01.643-.253.506.506 0 01.257.662c-.146.346-.487.573-.912.606a1.342 1.342 0 01-.108.005z" data-color="3"></path>
        <path fill="#5e5e5e" d="M81.699 94.135c-.221 0-.451-.047-.672-.141-.524-.224-.881-.668-.93-1.158-.043-.427.129-.861.47-1.194a1.9 1.9 0 011.545-.526c.964.124 1.727.974 1.736 1.935a.498.498 0 01-.492.502.488.488 0 01-.502-.492c-.004-.41-.354-.892-.87-.959a.908.908 0 00-.724.252c-.072.07-.191.214-.174.381.013.126.146.264.332.344.203.086.411.081.53-.012a.496.496 0 11.611.783c-.24.19-.543.285-.86.285z" data-color="3"></path>
        <path fill="#5e5e5e" d="M86.783 93.822a.496.496 0 01-.459-.687c.163-.392.289-.737.199-1.001-.027-.079-.136-.183-.272-.223-.06-.017-.118-.018-.14.001-.049.039-.097.174-.132.272-.103.296-.087.48-.065.519.254.104.374.39.27.644a.5.5 0 01-.65.269c-.6-.245-.789-.92-.493-1.761.07-.2.176-.503.449-.72.28-.224.659-.288 1.038-.178.433.126.799.461.934.854.22.64-.045 1.28-.221 1.704a.495.495 0 01-.458.307z" data-color="3"></path>
        <path fill="#5e5e5e" d="M82.669 109.731c-.176 0-.351-.031-.513-.094-.557-.218-.968-.754-1.098-1.433-.13-.671.116-1.474.838-1.71.69-.223 1.399.233 1.659.784.15.32.181.658.171.965a.496.496 0 01.249.495c-.041.324-.235.605-.545.788-.23.135-.497.205-.761.205zm-.402-2.302a.195.195 0 00-.064.01c-.18.059-.207.378-.169.576.025.129.133.558.485.696.05.02.111.029.179.024a.483.483 0 010-.114c.035-.314.075-.671-.043-.921-.066-.138-.243-.271-.388-.271z" data-color="3"></path>
    </g>
</svg>