<svg preserveAspectRatio="xMidYMid meet" data-bbox="17.5 12.5 165 175.001" viewBox="17.5 12.5 165 175.001" height="200" width="200" xmlns="http://www.w3.org/2000/svg" data-type="color" role="presentation" aria-hidden="true">
    <g>
        <path d="M84.789 12.551c-9.443-.499-13.777 2.562-17.791 13.015s-2.294 19.85 8.178 23.857 16.543-3.824 20.556-14.277.256-22.003-10.943-22.595z" fill="#91A5A4" data-color="1"></path>
        <path d="M18.45 110.868c-2.243 7.637-.706 11.61 6.657 16.372s15.029 4.694 20.209-3.285.265-14.047-7.098-18.809c-7.363-4.763-17.108-3.336-19.768 5.722z" fill="#91A5A4" data-color="1"></path>
        <path d="M109.874 116.828c-6.679 4.347-8.099 8.363-5.607 16.76s8.362 13.32 17.495 10.618c9.133-2.701 9.351-10.501 6.859-18.898-2.493-8.396-10.826-13.636-18.747-8.48z" fill="#91A5A4" data-color="1"></path>
        <path d="M181.28 184.968c-15.43-.885-31.855-3.074-47.211-7.868 1.607-12.864-.608-23.647-6.49-35.036 1.514-1.856 3.759-5.166 4.582-9.287 1.286-6.44-1.451-13.445-1.4-12.403.05 1.042-4.771 4.479-6.057 10.92-.643 3.222-.292 6.325.219 8.621-2.179-.891-5.306-1.933-9.051-1.59-6.552.599-11.517 4.863-11.517 4.863s5.658 3.294 12.21 2.695c3.323-.304 6.486-1.638 8.674-2.835 5.659 10.854 7.897 21.005 6.401 33.261-19.049-6.344-36.257-16.864-47.574-34.136-12.805-19.543-15.215-43.844-11.985-66.524 1.205-8.458 3.154-16.862 5.993-24.928 2.277.187 6.658.206 10.825-1.702 5.98-2.738 10.058-9.059 9.243-8.407-.816.652-6.433-1.23-12.413 1.509-4.099 1.877-6.92 5.13-8.29 6.991a1.435 1.435 0 0 0-.834-.051c-.668-2.063-1.656-6.327-5.238-9.838-4.695-4.601-11.164-5.623-11.164-5.623s1.142 6.438 5.837 11.038c3.083 3.022 7.307 4.72 9.598 5.386-9.071 25.744-10.084 54.481-.558 78.689-10.811.834-19.372-.355-29.393-4.56 1.163-2.072 2.846-5.785 2.925-10.068.121-6.566-3.818-12.975-3.583-11.958.235 1.016-3.899 5.253-4.02 11.819-.078 4.228 1.428 7.96 2.511 10.088a1.528 1.528 0 0 0-.386.441c-2.303-.522-5.995-1.299-10.162-.125-6.332 1.784-10.432 6.882-10.432 6.882s6.166 2.206 12.498.423c3.948-1.112 7.38-3.714 9.186-5.39 10.926 4.63 19.878 5.956 31.817 4.916.02-.002.033-.013.053-.016 6.898 16.082 18.594 30.002 35.897 39.442 21.131 11.528 45.521 15.528 69.291 16.891 1.627.093 1.622-2.437-.002-2.53z" fill="#0F2E59" data-color="2"></path>
    </g>
</svg>